<svg width="3020" height="1185" viewBox="0 0 3020 1185" fill="none" xmlns="http://www.w3.org/2000/svg">
<path d="M718.857 15H1057.75C1061.31 15 1064.6 16.8908 1066.39 19.9652L1222.66 288.119C1224.42 291.148 1224.47 294.88 1222.79 297.955L1063.5 589L1222.8 877.617C1224.48 880.652 1224.46 884.339 1222.76 887.359L1066.37 1164.91C1064.6 1168.05 1061.27 1170 1057.66 1170H718.957C715.556 1170 712.388 1168.27 710.547 1165.41L528.5 882.5H206.978C203.565 882.5 200.388 880.76 198.551 877.884L17.4247 594.361C15.3351 591.09 15.327 586.905 17.4041 583.626L198.555 297.649C200.389 294.754 203.577 293 207.003 293H528.5L710.532 19.4599C712.386 16.6739 715.511 15 718.857 15Z" fill="#FFD800"/>
<path d="M1063.5 589L1222.79 297.955C1224.47 294.88 1224.42 291.148 1222.66 288.119L1066.39 19.9652C1064.6 16.8908 1061.31 15 1057.75 15H718.857C715.511 15 712.386 16.6739 710.532 19.4599L528.5 293M1063.5 589H713.5M1063.5 589L1222.8 877.617C1224.48 880.652 1224.46 884.339 1222.76 887.359L1066.37 1164.91C1064.6 1168.05 1061.27 1170 1057.66 1170H718.957C715.556 1170 712.388 1168.27 710.547 1165.41L528.5 882.5M713.5 589L528.5 293M713.5 589L528.5 882.5M528.5 293H207.003C203.577 293 200.389 294.754 198.555 297.649L17.4041 583.626C15.327 586.905 15.3351 591.09 17.4247 594.361L198.551 877.884C200.388 880.76 203.565 882.5 206.978 882.5H528.5" stroke="#213BC1" stroke-width="30"/>
<path d="M718.857 15H1057.75C1061.31 15 1064.6 16.8908 1066.39 19.9652L1222.66 288.119C1224.42 291.148 1224.47 294.88 1222.79 297.955L1063.5 589L1222.8 877.617C1224.48 880.652 1224.46 884.339 1222.76 887.359L1066.37 1164.91C1064.6 1168.05 1061.27 1170 1057.66 1170H718.957C715.556 1170 712.388 1168.27 710.547 1165.41L528.5 882.5H206.978C203.565 882.5 200.388 880.76 198.551 877.884L17.4247 594.361C15.3351 591.09 15.327 586.905 17.4041 583.626L198.555 297.649C200.389 294.754 203.577 293 207.003 293H528.5L710.532 19.4599C712.386 16.6739 715.511 15 718.857 15Z" fill="#FFD800"/>
<path d="M1063.5 589L1222.79 297.955C1224.47 294.88 1224.42 291.148 1222.66 288.119L1066.39 19.9652C1064.6 16.8908 1061.31 15 1057.75 15H718.857C715.511 15 712.386 16.6739 710.532 19.4599L528.5 293M1063.5 589H713.5M1063.5 589L1222.8 877.617C1224.48 880.652 1224.46 884.339 1222.76 887.359L1066.37 1164.91C1064.6 1168.05 1061.27 1170 1057.66 1170H718.957C715.556 1170 712.388 1168.27 710.547 1165.41L528.5 882.5M713.5 589L528.5 293M713.5 589L528.5 882.5M528.5 293H207.003C203.577 293 200.389 294.754 198.555 297.649L17.4041 583.626C15.327 586.905 15.3351 591.09 17.4247 594.361L198.551 877.884C200.388 880.76 203.565 882.5 206.978 882.5H528.5" stroke="#213BC1" stroke-width="30"/>
<path d="M1016.27 689.506C1014.57 686.13 1011.12 684 1007.34 684H773.5L833.5 747.615H1045.5L1016.27 689.506Z" fill="#FF7C2C" fill-opacity="0.5"/>
<path d="M773.5 684L641.5 910.304H749.5L833.5 747.615L773.5 684Z" fill="#FF7C2C" fill-opacity="0.5"/>
<path d="M641.5 910.304L746.55 1074.39C748.388 1077.26 751.562 1079 754.972 1079H860.5L749.5 910.304H641.5Z" fill="#FF7C2C" fill-opacity="0.5"/>
<path d="M773.5 684H1007.34C1011.12 684 1014.57 686.13 1016.27 689.506L1045.5 747.615M773.5 684L641.5 910.304M773.5 684L833.5 747.615M641.5 910.304L746.55 1074.39C748.388 1077.26 751.562 1079 754.972 1079H860.5M641.5 910.304H749.5M833.5 747.615H1045.5M833.5 747.615L749.5 910.304M1045.5 747.615L1124.39 905.086C1126 908.31 1125.76 912.155 1123.74 915.147L1016.47 1074.58C1014.61 1077.34 1011.5 1079 1008.18 1079H860.5M749.5 910.304L860.5 1079" stroke="#FF7C2C" stroke-width="30"/>
<path d="M1016.27 105.506C1014.57 102.13 1011.12 100 1007.34 100H773.5L833.5 163.615H1045.5L1016.27 105.506Z" fill="#FF7C2C" fill-opacity="0.5"/>
<path d="M773.5 100L636.5 305H749.5L833.5 163.615L773.5 100Z" fill="#FF7C2C" fill-opacity="0.5"/>
<path d="M636.5 305L746.593 490.112C748.395 493.143 751.661 495 755.188 495H860.5L749.5 305H636.5Z" fill="#FF7C2C" fill-opacity="0.5"/>
<path d="M773.5 100H1007.34C1011.12 100 1014.57 102.13 1016.27 105.506L1045.5 163.615M773.5 100L636.5 305M773.5 100L833.5 163.615M636.5 305L746.593 490.112C748.395 493.143 751.661 495 755.188 495H860.5M636.5 305H749.5M833.5 163.615H1045.5M833.5 163.615L749.5 305M1045.5 163.615L1120.77 300.051C1122.46 303.122 1122.43 306.856 1120.67 309.892L1016.39 490.01C1014.6 493.099 1011.3 495 1007.73 495H860.5M749.5 305L860.5 495" stroke="#FF7C2C" stroke-width="30"/>
<path d="M494.27 400.506C492.572 397.13 489.115 395 485.336 395H251.5L311.5 458.615H523.5L494.27 400.506Z" fill="#FF7C2C" fill-opacity="0.5"/>
<path d="M251.5 395L114.5 600H227.5L311.5 458.615L251.5 395Z" fill="#FF7C2C" fill-opacity="0.5"/>
<path d="M114.5 600L224.593 785.112C226.395 788.143 229.661 790 233.188 790H338.5L227.5 600H114.5Z" fill="#FF7C2C" fill-opacity="0.5"/>
<path d="M251.5 395H485.336C489.115 395 492.572 397.13 494.27 400.506L523.5 458.615M251.5 395L114.5 600M251.5 395L311.5 458.615M114.5 600L224.593 785.112C226.395 788.143 229.661 790 233.188 790H338.5M114.5 600H227.5M311.5 458.615H523.5M311.5 458.615L227.5 600M523.5 458.615L598.77 595.051C600.464 598.122 600.425 601.856 598.668 604.892L494.389 785.01C492.601 788.099 489.303 790 485.734 790H338.5M227.5 600L338.5 790" stroke="#FF7C2C" stroke-width="30"/>
<path d="M1277.1 716C1272.03 716 1267.9 714.533 1264.7 711.6C1261.77 708.667 1260.3 704.8 1260.3 700V450C1260.3 445.2 1261.77 441.333 1264.7 438.4C1267.9 435.467 1272.03 434 1277.1 434H1355.1C1400.17 434 1434.97 446.267 1459.5 470.8C1484.3 495.067 1496.7 529.733 1496.7 574.8C1496.7 619.867 1484.3 654.667 1459.5 679.2C1434.7 703.733 1399.9 716 1355.1 716H1277.1ZM1353.1 688C1426.17 688 1462.7 650.267 1462.7 574.8C1462.7 499.6 1426.17 462 1353.1 462H1293.1V688H1353.1ZM1630.8 516.4C1679.6 516.4 1704 542 1704 593.2V702C1704 706.8 1702.54 710.667 1699.6 713.6C1696.94 716.533 1693.2 718 1688.4 718C1683.6 718 1679.74 716.533 1676.8 713.6C1673.87 710.667 1672.4 706.8 1672.4 702V682.8C1667.34 694.267 1659.6 703.2 1649.2 709.6C1638.8 715.733 1626.8 718.8 1613.2 718.8C1600.67 718.8 1589.07 716.267 1578.4 711.2C1568 706.133 1559.74 699.067 1553.6 690C1547.47 680.933 1544.4 670.933 1544.4 660C1544.4 645.333 1548.14 634 1555.6 626C1563.07 617.733 1575.34 611.867 1592.4 608.4C1609.47 604.667 1633.2 602.8 1663.6 602.8H1672.4V589.6C1672.4 573.6 1669.07 561.867 1662.4 554.4C1656 546.933 1645.47 543.2 1630.8 543.2C1612.67 543.2 1594.27 548.133 1575.6 558C1568.4 562.533 1563.34 564.8 1560.4 564.8C1557.2 564.8 1554.54 563.6 1552.4 561.2C1550.27 558.8 1549.2 555.733 1549.2 552C1549.2 548.267 1550.27 545.067 1552.4 542.4C1554.8 539.467 1558.54 536.533 1563.6 533.6C1572.94 528.267 1583.47 524.133 1595.2 521.2C1607.2 518 1619.07 516.4 1630.8 516.4ZM1617.6 693.2C1633.6 693.2 1646.67 687.867 1656.8 677.2C1667.2 666.267 1672.4 652.267 1672.4 635.2V623.6H1665.2C1641.74 623.6 1623.87 624.667 1611.6 626.8C1599.34 628.667 1590.54 632 1585.2 636.8C1580.14 641.333 1577.6 648.133 1577.6 657.2C1577.6 667.6 1581.34 676.267 1588.8 683.2C1596.54 689.867 1606.14 693.2 1617.6 693.2ZM1844.11 718.8C1825.71 718.8 1809.45 714.667 1795.31 706.4C1781.45 698.133 1770.65 686.4 1762.91 671.2C1755.45 655.733 1751.71 637.867 1751.71 617.6C1751.71 597.333 1755.45 579.6 1762.91 564.4C1770.65 548.933 1781.45 537.067 1795.31 528.8C1809.45 520.533 1825.71 516.4 1844.11 516.4C1862.51 516.4 1878.78 520.533 1892.91 528.8C1907.05 537.067 1917.85 548.933 1925.31 564.4C1933.05 579.6 1936.91 597.333 1936.91 617.6C1936.91 637.867 1933.05 655.733 1925.31 671.2C1917.85 686.4 1907.05 698.133 1892.91 706.4C1878.78 714.667 1862.51 718.8 1844.11 718.8ZM1844.11 692C1863.31 692 1877.98 685.733 1888.11 673.2C1898.51 660.4 1903.71 641.867 1903.71 617.6C1903.71 593.867 1898.51 575.6 1888.11 562.8C1877.71 549.733 1863.05 543.2 1844.11 543.2C1825.18 543.2 1810.51 549.733 1800.11 562.8C1789.71 575.6 1784.51 593.867 1784.51 617.6C1784.51 641.6 1789.58 660 1799.71 672.8C1810.11 685.6 1824.91 692 1844.11 692ZM2083.19 516.4C2100.25 516.4 2115.32 520.533 2128.39 528.8C2141.45 537.067 2151.59 548.8 2158.79 564C2165.99 579.2 2169.59 596.8 2169.59 616.8C2169.59 637.067 2165.99 654.933 2158.79 670.4C2151.59 685.6 2141.45 697.467 2128.39 706C2115.32 714.533 2100.25 718.8 2083.19 718.8C2067.99 718.8 2054.65 715.467 2043.19 708.8C2031.99 702.133 2023.45 692.667 2017.59 680.4V702C2017.59 706.8 2016.12 710.667 2013.19 713.6C2010.52 716.533 2006.65 718 2001.59 718C1996.52 718 1992.52 716.533 1989.59 713.6C1986.65 710.667 1985.19 706.8 1985.19 702V447.6C1985.19 443.067 1986.65 439.333 1989.59 436.4C1992.52 433.467 1996.52 432 2001.59 432C2006.65 432 2010.52 433.467 2013.19 436.4C2016.12 439.067 2017.59 442.8 2017.59 447.6V554.8C2023.45 542.533 2031.99 533.067 2043.19 526.4C2054.65 519.733 2067.99 516.4 2083.19 516.4ZM2076.79 692C2095.72 692 2110.39 685.467 2120.79 672.4C2131.19 659.067 2136.39 640.533 2136.39 616.8C2136.39 593.6 2131.19 575.6 2120.79 562.8C2110.39 550 2095.72 543.6 2076.79 543.6C2057.85 543.6 2043.19 550 2032.79 562.8C2022.65 575.6 2017.59 593.867 2017.59 617.6C2017.59 641.333 2022.65 659.733 2032.79 672.8C2043.19 685.6 2057.85 692 2076.79 692ZM2297.6 516.4C2346.4 516.4 2370.8 542 2370.8 593.2V702C2370.8 706.8 2369.33 710.667 2366.4 713.6C2363.73 716.533 2360 718 2355.2 718C2350.4 718 2346.53 716.533 2343.6 713.6C2340.67 710.667 2339.2 706.8 2339.2 702V682.8C2334.13 694.267 2326.4 703.2 2316 709.6C2305.6 715.733 2293.6 718.8 2280 718.8C2267.47 718.8 2255.87 716.267 2245.2 711.2C2234.8 706.133 2226.53 699.067 2220.4 690C2214.27 680.933 2211.2 670.933 2211.2 660C2211.2 645.333 2214.93 634 2222.4 626C2229.87 617.733 2242.13 611.867 2259.2 608.4C2276.27 604.667 2300 602.8 2330.4 602.8H2339.2V589.6C2339.2 573.6 2335.87 561.867 2329.2 554.4C2322.8 546.933 2312.27 543.2 2297.6 543.2C2279.47 543.2 2261.07 548.133 2242.4 558C2235.2 562.533 2230.13 564.8 2227.2 564.8C2224 564.8 2221.33 563.6 2219.2 561.2C2217.07 558.8 2216 555.733 2216 552C2216 548.267 2217.07 545.067 2219.2 542.4C2221.6 539.467 2225.33 536.533 2230.4 533.6C2239.73 528.267 2250.27 524.133 2262 521.2C2274 518 2285.87 516.4 2297.6 516.4ZM2284.4 693.2C2300.4 693.2 2313.47 687.867 2323.6 677.2C2334 666.267 2339.2 652.267 2339.2 635.2V623.6H2332C2308.53 623.6 2290.67 624.667 2278.4 626.8C2266.13 628.667 2257.33 632 2252 636.8C2246.93 641.333 2244.4 648.133 2244.4 657.2C2244.4 667.6 2248.13 676.267 2255.6 683.2C2263.33 689.867 2272.93 693.2 2284.4 693.2ZM2510.91 718.8C2492.51 718.8 2476.24 714.667 2462.11 706.4C2448.24 698.133 2437.44 686.4 2429.71 671.2C2422.24 655.733 2418.51 637.867 2418.51 617.6C2418.51 597.333 2422.24 579.6 2429.71 564.4C2437.44 548.933 2448.24 537.067 2462.11 528.8C2476.24 520.533 2492.51 516.4 2510.91 516.4C2529.31 516.4 2545.58 520.533 2559.71 528.8C2573.84 537.067 2584.64 548.933 2592.11 564.4C2599.84 579.6 2603.71 597.333 2603.71 617.6C2603.71 637.867 2599.84 655.733 2592.11 671.2C2584.64 686.4 2573.84 698.133 2559.71 706.4C2545.58 714.667 2529.31 718.8 2510.91 718.8ZM2510.91 692C2530.11 692 2544.78 685.733 2554.91 673.2C2565.31 660.4 2570.51 641.867 2570.51 617.6C2570.51 593.867 2565.31 575.6 2554.91 562.8C2544.51 549.733 2529.84 543.2 2510.91 543.2C2491.98 543.2 2477.31 549.733 2466.91 562.8C2456.51 575.6 2451.31 593.867 2451.31 617.6C2451.31 641.6 2456.38 660 2466.51 672.8C2476.91 685.6 2491.71 692 2510.91 692Z" fill="#1B32A8"/>
<path d="M1264.7 711.6L1261.16 715.136L1261.24 715.212L1261.32 715.286L1264.7 711.6ZM1264.7 438.4L1261.32 434.714L1261.24 434.788L1261.16 434.864L1264.7 438.4ZM1459.5 470.8L1455.96 474.336L1455.98 474.355L1456 474.374L1459.5 470.8ZM1459.5 679.2L1463.02 682.755L1459.5 679.2ZM1293.1 462V457H1288.1V462H1293.1ZM1293.1 688H1288.1V693H1293.1V688ZM1277.1 711C1273.06 711 1270.2 709.863 1268.08 707.914L1261.32 715.286C1265.6 719.204 1271.01 721 1277.1 721V711ZM1268.24 708.064C1266.39 706.217 1265.3 703.699 1265.3 700H1255.3C1255.3 705.901 1257.15 711.116 1261.16 715.136L1268.24 708.064ZM1265.3 700V450H1255.3V700H1265.3ZM1265.3 450C1265.3 446.301 1266.39 443.783 1268.24 441.936L1261.16 434.864C1257.15 438.884 1255.3 444.099 1255.3 450H1265.3ZM1268.08 442.086C1270.2 440.137 1273.06 439 1277.1 439V429C1271.01 429 1265.6 430.796 1261.32 434.714L1268.08 442.086ZM1277.1 439H1355.1V429H1277.1V439ZM1355.1 439C1399.25 439 1432.63 450.996 1455.96 474.336L1463.04 467.264C1437.31 441.537 1401.08 429 1355.1 429V439ZM1456 474.374C1479.58 497.442 1491.7 530.658 1491.7 574.8H1501.7C1501.7 528.809 1489.02 492.692 1463 467.226L1456 474.374ZM1491.7 574.8C1491.7 618.939 1479.58 652.304 1455.98 675.645L1463.02 682.755C1489.02 657.03 1501.7 620.794 1501.7 574.8H1491.7ZM1455.98 675.645C1432.37 699.01 1398.97 711 1355.1 711V721C1400.83 721 1437.03 708.457 1463.02 682.755L1455.98 675.645ZM1355.1 711H1277.1V721H1355.1V711ZM1353.1 693C1390.45 693 1419.36 683.348 1438.89 663.178C1458.39 643.038 1467.7 613.264 1467.7 574.8H1457.7C1457.7 611.802 1448.74 638.628 1431.71 656.222C1414.7 673.786 1388.82 683 1353.1 683V693ZM1467.7 574.8C1467.7 536.465 1458.39 506.788 1438.89 486.716C1419.36 466.616 1390.44 457 1353.1 457V467C1388.83 467 1414.71 476.184 1431.71 493.684C1448.74 511.212 1457.7 537.935 1457.7 574.8H1467.7ZM1353.1 457H1293.1V467H1353.1V457ZM1288.1 462V688H1298.1V462H1288.1ZM1293.1 693H1353.1V683H1293.1V693ZM1699.6 713.6L1696.07 710.064L1695.98 710.149L1695.9 710.237L1699.6 713.6ZM1676.8 713.6L1680.34 710.064V710.064L1676.8 713.6ZM1672.4 682.8H1677.4L1667.83 680.779L1672.4 682.8ZM1649.2 709.6L1651.74 713.907L1651.78 713.883L1651.82 713.858L1649.2 709.6ZM1578.4 711.2L1576.21 715.695L1576.24 715.706L1576.26 715.716L1578.4 711.2ZM1553.6 690L1549.46 692.802L1553.6 690ZM1555.6 626L1559.26 629.412L1559.29 629.382L1559.31 629.351L1555.6 626ZM1592.4 608.4L1593.4 613.3L1593.44 613.292L1593.47 613.284L1592.4 608.4ZM1672.4 602.8V607.8H1677.4V602.8H1672.4ZM1662.4 554.4L1658.61 557.654L1658.64 557.692L1658.67 557.73L1662.4 554.4ZM1575.6 558L1573.27 553.58L1573.1 553.668L1572.94 553.769L1575.6 558ZM1552.4 542.4L1548.53 539.234L1548.52 539.255L1548.5 539.277L1552.4 542.4ZM1563.6 533.6L1561.12 529.259L1561.11 529.266L1561.1 529.273L1563.6 533.6ZM1595.2 521.2L1596.42 526.051L1596.45 526.041L1596.49 526.031L1595.2 521.2ZM1656.8 677.2L1653.18 673.754L1653.18 673.756L1656.8 677.2ZM1672.4 623.6H1677.4V618.6H1672.4V623.6ZM1611.6 626.8L1612.36 631.743L1612.41 631.735L1612.46 631.726L1611.6 626.8ZM1585.2 636.8L1588.54 640.526L1588.54 640.521L1588.55 640.516L1585.2 636.8ZM1588.8 683.2L1585.4 686.864L1585.47 686.927L1585.54 686.987L1588.8 683.2ZM1630.8 521.4C1654.37 521.4 1671.14 527.569 1682.08 539.05C1693.07 550.575 1699 568.312 1699 593.2H1709C1709 566.888 1702.74 546.225 1689.32 532.15C1675.86 518.031 1656.04 511.4 1630.8 511.4V521.4ZM1699 593.2V702H1709V593.2H1699ZM1699 702C1699 705.699 1697.92 708.217 1696.07 710.064L1703.14 717.136C1707.16 713.116 1709 707.901 1709 702H1699ZM1695.9 710.237C1694.38 711.911 1692.12 713 1688.4 713V723C1694.29 723 1699.49 721.156 1703.3 716.963L1695.9 710.237ZM1688.4 713C1684.7 713 1682.19 711.912 1680.34 710.064L1673.27 717.136C1677.29 721.155 1682.5 723 1688.4 723V713ZM1680.34 710.064C1678.49 708.217 1677.4 705.699 1677.4 702H1667.4C1667.4 707.901 1669.25 713.116 1673.27 717.136L1680.34 710.064ZM1677.4 702V682.8H1667.4V702H1677.4ZM1667.83 680.779C1663.16 691.346 1656.1 699.487 1646.58 705.342L1651.82 713.858C1663.11 706.913 1671.51 697.188 1676.98 684.821L1667.83 680.779ZM1646.66 705.293C1637.13 710.917 1626.03 713.8 1613.2 713.8V723.8C1627.58 723.8 1640.48 720.549 1651.74 713.907L1646.66 705.293ZM1613.2 713.8C1601.37 713.8 1590.5 711.412 1580.55 706.684L1576.26 715.716C1587.64 721.121 1599.97 723.8 1613.2 723.8V713.8ZM1580.59 706.705C1570.93 701.999 1563.36 695.498 1557.74 687.198L1549.46 692.802C1556.11 702.636 1565.07 710.267 1576.21 715.695L1580.59 706.705ZM1557.74 687.198C1552.17 678.958 1549.4 669.933 1549.4 660H1539.4C1539.4 671.933 1542.77 682.909 1549.46 692.802L1557.74 687.198ZM1549.4 660C1549.4 646.16 1552.92 636.208 1559.26 629.412L1551.95 622.588C1543.36 631.792 1539.4 644.507 1539.4 660H1549.4ZM1559.31 629.351C1565.76 622.212 1576.83 616.666 1593.4 613.3L1591.41 603.5C1573.84 607.068 1560.38 613.254 1551.89 622.649L1559.31 629.351ZM1593.47 613.284C1610.02 609.664 1633.34 607.8 1663.6 607.8V597.8C1633.07 597.8 1608.92 599.669 1591.33 603.515L1593.47 613.284ZM1663.6 607.8H1672.4V597.8H1663.6V607.8ZM1677.4 602.8V589.6H1667.4V602.8H1677.4ZM1677.4 589.6C1677.4 573.068 1673.99 559.865 1666.13 551.07L1658.67 557.73C1664.15 563.868 1667.4 574.132 1667.4 589.6H1677.4ZM1666.2 551.146C1658.46 542.117 1646.2 538.2 1630.8 538.2V548.2C1644.74 548.2 1653.55 551.749 1658.61 557.654L1666.2 551.146ZM1630.8 538.2C1611.73 538.2 1592.53 543.395 1573.27 553.58L1577.94 562.42C1596.01 552.872 1613.61 548.2 1630.8 548.2V538.2ZM1572.94 553.769C1569.45 555.969 1566.6 557.535 1564.36 558.536C1562 559.593 1560.79 559.8 1560.4 559.8V569.8C1562.95 569.8 1565.74 568.874 1568.44 567.664C1571.27 566.398 1574.56 564.565 1578.27 562.231L1572.94 553.769ZM1560.4 559.8C1558.64 559.8 1557.33 559.215 1556.14 557.878L1548.67 564.522C1551.74 567.985 1555.77 569.8 1560.4 569.8V559.8ZM1556.14 557.878C1554.95 556.54 1554.2 554.72 1554.2 552H1544.2C1544.2 556.746 1545.59 561.06 1548.67 564.522L1556.14 557.878ZM1554.2 552C1554.2 549.289 1554.95 547.219 1556.31 545.523L1548.5 539.277C1545.59 542.914 1544.2 547.244 1544.2 552H1554.2ZM1556.27 545.566C1558.14 543.281 1561.31 540.705 1566.11 537.927L1561.1 529.273C1555.76 532.361 1551.46 535.652 1548.53 539.234L1556.27 545.566ZM1566.08 537.941C1574.97 532.861 1585.07 528.887 1596.42 526.051L1593.99 516.349C1581.87 519.38 1570.9 523.672 1561.12 529.259L1566.08 537.941ZM1596.49 526.031C1608.1 522.937 1619.53 521.4 1630.8 521.4V511.4C1618.61 511.4 1606.31 513.063 1593.91 516.369L1596.49 526.031ZM1617.6 698.2C1634.84 698.2 1649.26 692.397 1660.43 680.644L1653.18 673.756C1644.08 683.337 1632.37 688.2 1617.6 688.2V698.2ZM1660.43 680.646C1671.83 668.659 1677.4 653.368 1677.4 635.2H1667.4C1667.4 651.166 1662.58 663.874 1653.18 673.754L1660.43 680.646ZM1677.4 635.2V623.6H1667.4V635.2H1677.4ZM1672.4 618.6H1665.2V628.6H1672.4V618.6ZM1665.2 618.6C1641.65 618.6 1623.44 619.666 1610.75 621.874L1612.46 631.726C1624.3 629.668 1641.82 628.6 1665.2 628.6V618.6ZM1610.85 621.857C1598.24 623.776 1588.27 627.309 1581.86 633.084L1588.55 640.516C1592.8 636.691 1600.43 633.557 1612.36 631.743L1610.85 621.857ZM1581.87 633.074C1575.42 638.844 1572.6 647.21 1572.6 657.2H1582.6C1582.6 649.057 1584.85 643.823 1588.54 640.526L1581.87 633.074ZM1572.6 657.2C1572.6 668.958 1576.89 678.963 1585.4 686.864L1592.21 679.536C1585.78 673.571 1582.6 666.242 1582.6 657.2H1572.6ZM1585.54 686.987C1594.29 694.533 1605.1 698.2 1617.6 698.2V688.2C1607.18 688.2 1598.78 685.2 1592.07 679.413L1585.54 686.987ZM1795.31 706.4L1792.75 710.695L1792.77 710.705L1792.79 710.716L1795.31 706.4ZM1762.91 671.2L1758.41 673.374L1758.43 673.421L1758.46 673.467L1762.91 671.2ZM1762.91 564.4L1758.44 562.164L1758.43 562.18L1758.42 562.195L1762.91 564.4ZM1795.31 528.8L1792.79 524.484L1792.77 524.495L1792.75 524.505L1795.31 528.8ZM1892.91 528.8L1895.44 524.484L1892.91 528.8ZM1925.31 564.4L1920.81 566.574L1920.83 566.621L1920.86 566.667L1925.31 564.4ZM1925.31 671.2L1920.84 668.964L1920.83 668.98L1920.82 668.995L1925.31 671.2ZM1892.91 706.4L1895.44 710.716L1892.91 706.4ZM1888.11 673.2L1884.23 670.047L1884.22 670.056L1888.11 673.2ZM1888.11 562.8L1884.2 565.914L1884.22 565.933L1884.23 565.953L1888.11 562.8ZM1800.11 562.8L1803.99 565.953L1804.01 565.933L1804.02 565.914L1800.11 562.8ZM1799.71 672.8L1795.79 675.904L1795.81 675.928L1795.83 675.953L1799.71 672.8ZM1844.11 713.8C1826.49 713.8 1811.11 709.849 1797.84 702.084L1792.79 710.716C1807.78 719.484 1824.94 723.8 1844.11 723.8V713.8ZM1797.87 702.105C1784.86 694.35 1774.7 683.341 1767.37 668.933L1758.46 673.467C1766.59 689.459 1778.03 701.917 1792.75 710.695L1797.87 702.105ZM1767.42 669.026C1760.33 654.349 1756.71 637.248 1756.71 617.6H1746.71C1746.71 638.485 1750.56 657.118 1758.41 673.374L1767.42 669.026ZM1756.71 617.6C1756.71 597.949 1760.33 580.996 1767.4 566.605L1758.42 562.195C1750.56 578.204 1746.71 596.718 1746.71 617.6H1756.71ZM1767.38 566.636C1774.72 551.961 1784.89 540.837 1797.87 533.095L1792.75 524.505C1778.01 533.296 1766.57 545.906 1758.44 562.164L1767.38 566.636ZM1797.84 533.116C1811.11 525.351 1826.49 521.4 1844.11 521.4V511.4C1824.94 511.4 1807.78 515.716 1792.79 524.484L1797.84 533.116ZM1844.11 521.4C1861.74 521.4 1877.11 525.351 1890.39 533.116L1895.44 524.484C1880.45 515.716 1863.29 511.4 1844.11 511.4V521.4ZM1890.39 533.116C1903.62 540.856 1913.75 551.956 1920.81 566.574L1929.82 562.226C1921.94 545.911 1910.47 533.278 1895.44 524.484L1890.39 533.116ZM1920.86 566.667C1928.17 581.044 1931.91 597.974 1931.91 617.6H1941.91C1941.91 596.693 1937.92 578.156 1929.77 562.133L1920.86 566.667ZM1931.91 617.6C1931.91 637.224 1928.17 654.302 1920.84 668.964L1929.78 673.436C1937.92 657.165 1941.91 638.51 1941.91 617.6H1931.91ZM1920.82 668.995C1913.78 683.346 1903.64 694.331 1890.39 702.084L1895.44 710.716C1910.45 701.936 1921.92 689.454 1929.8 673.405L1920.82 668.995ZM1890.39 702.084C1877.11 709.849 1861.74 713.8 1844.11 713.8V723.8C1863.29 723.8 1880.45 719.484 1895.44 710.716L1890.39 702.084ZM1844.11 697C1864.5 697 1880.73 690.28 1892 676.344L1884.22 670.056C1875.23 681.187 1862.12 687 1844.11 687V697ZM1891.99 676.353C1903.39 662.326 1908.71 642.492 1908.71 617.6H1898.71C1898.71 641.242 1893.64 658.474 1884.23 670.047L1891.99 676.353ZM1908.71 617.6C1908.71 593.21 1903.38 573.657 1891.99 559.647L1884.23 565.953C1893.65 577.543 1898.71 594.523 1898.71 617.6H1908.71ZM1892.02 559.686C1880.54 545.258 1864.34 538.2 1844.11 538.2V548.2C1861.75 548.2 1874.88 554.208 1884.2 565.914L1892.02 559.686ZM1844.11 538.2C1823.89 538.2 1807.68 545.258 1796.2 559.686L1804.02 565.914C1813.34 554.208 1826.47 548.2 1844.11 548.2V538.2ZM1796.23 559.647C1784.85 573.657 1779.51 593.21 1779.51 617.6H1789.51C1789.51 594.523 1794.58 577.543 1803.99 565.953L1796.23 559.647ZM1779.51 617.6C1779.51 642.216 1784.7 661.889 1795.79 675.904L1803.63 669.696C1794.46 658.111 1789.51 640.984 1789.51 617.6H1779.51ZM1795.83 675.953C1807.34 690.12 1823.68 697 1844.11 697V687C1826.14 687 1812.88 681.08 1803.59 669.647L1795.83 675.953ZM2128.39 528.8L2131.06 524.575L2128.39 528.8ZM2158.79 564L2154.27 566.14L2158.79 564ZM2158.79 670.4L2163.31 672.54L2163.31 672.525L2163.32 672.51L2158.79 670.4ZM2128.39 706L2131.12 710.186L2128.39 706ZM2043.19 708.8L2040.63 713.096L2040.65 713.11L2040.67 713.123L2043.19 708.8ZM2017.59 680.4L2022.1 678.243L2012.59 680.4H2017.59ZM2013.19 713.6L2009.65 710.064L2009.57 710.149L2009.49 710.237L2013.19 713.6ZM1989.59 713.6L1986.05 717.136L1989.59 713.6ZM1989.59 436.4L1986.05 432.864V432.864L1989.59 436.4ZM2013.19 436.4L2009.49 439.763L2009.65 439.94L2009.82 440.1L2013.19 436.4ZM2017.59 554.8H2012.59L2022.1 556.957L2017.59 554.8ZM2043.19 526.4L2040.67 522.077L2040.65 522.09L2040.63 522.104L2043.19 526.4ZM2120.79 672.4L2124.7 675.514L2124.71 675.495L2124.73 675.475L2120.79 672.4ZM2120.79 562.8L2124.67 559.647L2120.79 562.8ZM2032.79 562.8L2028.91 559.647L2028.89 559.672L2028.87 559.696L2032.79 562.8ZM2032.79 672.8L2028.84 675.864L2028.87 675.909L2028.91 675.953L2032.79 672.8ZM2083.19 521.4C2099.41 521.4 2113.53 525.316 2125.71 533.025L2131.06 524.575C2117.11 515.75 2101.1 511.4 2083.19 511.4V521.4ZM2125.71 533.025C2137.91 540.742 2147.44 551.718 2154.27 566.14L2163.31 561.86C2155.74 545.882 2145 533.392 2131.06 524.575L2125.71 533.025ZM2154.27 566.14C2161.1 580.557 2164.59 597.402 2164.59 616.8H2174.59C2174.59 596.198 2170.88 577.843 2163.31 561.86L2154.27 566.14ZM2164.59 616.8C2164.59 636.473 2161.09 653.597 2154.25 668.29L2163.32 672.51C2170.88 656.27 2174.59 637.66 2174.59 616.8H2164.59ZM2154.27 668.26C2147.43 682.693 2137.89 693.824 2125.65 701.814L2131.12 710.186C2145.02 701.109 2155.74 688.507 2163.31 672.54L2154.27 668.26ZM2125.65 701.814C2113.48 709.767 2099.38 713.8 2083.19 713.8V723.8C2101.13 723.8 2117.17 719.3 2131.12 710.186L2125.65 701.814ZM2083.19 713.8C2068.74 713.8 2056.3 710.639 2045.7 704.477L2040.67 713.123C2053.01 720.294 2067.24 723.8 2083.19 723.8V713.8ZM2045.74 704.504C2035.43 698.364 2027.56 689.66 2022.1 678.243L2013.08 682.557C2019.35 695.673 2028.54 705.903 2040.63 713.096L2045.74 704.504ZM2012.59 680.4V702H2022.59V680.4H2012.59ZM2012.59 702C2012.59 705.699 2011.5 708.217 2009.65 710.064L2016.72 717.136C2020.74 713.116 2022.59 707.901 2022.59 702H2012.59ZM2009.49 710.237C2008.02 711.854 2005.66 713 2001.59 713V723C2007.65 723 2013.02 721.212 2016.89 716.963L2009.49 710.237ZM2001.59 713C1997.53 713 1994.92 711.86 1993.12 710.064L1986.05 717.136C1990.12 721.207 1995.51 723 2001.59 723V713ZM1993.12 710.064C1991.28 708.217 1990.19 705.699 1990.19 702H1980.19C1980.19 707.901 1982.03 713.116 1986.05 717.136L1993.12 710.064ZM1990.19 702V447.6H1980.19V702H1990.19ZM1990.19 447.6C1990.19 444.257 1991.22 441.84 1993.12 439.936L1986.05 432.864C1982.09 436.827 1980.19 441.876 1980.19 447.6H1990.19ZM1993.12 439.936C1994.92 438.14 1997.53 437 2001.59 437V427C1995.51 427 1990.12 428.793 1986.05 432.864L1993.12 439.936ZM2001.59 437C2005.66 437 2008.02 438.145 2009.49 439.763L2016.89 433.037C2013.02 428.788 2007.65 427 2001.59 427V437ZM2009.82 440.1C2011.5 441.622 2012.59 443.887 2012.59 447.6H2022.59C2022.59 441.713 2020.74 436.511 2016.55 432.7L2009.82 440.1ZM2012.59 447.6V554.8H2022.59V447.6H2012.59ZM2022.1 556.957C2027.56 545.54 2035.43 536.836 2045.74 530.696L2040.63 522.104C2028.54 529.297 2019.35 539.527 2013.08 552.643L2022.1 556.957ZM2045.7 530.723C2056.3 524.561 2068.74 521.4 2083.19 521.4V511.4C2067.24 511.4 2053.01 514.906 2040.67 522.077L2045.7 530.723ZM2076.79 697C2097.01 697 2113.22 689.942 2124.7 675.514L2116.88 669.286C2107.56 680.992 2094.43 687 2076.79 687V697ZM2124.73 675.475C2136.04 660.97 2141.39 641.207 2141.39 616.8H2131.39C2131.39 639.86 2126.33 657.164 2116.84 669.325L2124.73 675.475ZM2141.39 616.8C2141.39 592.911 2136.04 573.639 2124.67 559.647L2116.91 565.953C2126.34 577.561 2131.39 594.289 2131.39 616.8H2141.39ZM2124.67 559.647C2113.17 545.497 2096.98 538.6 2076.79 538.6V548.6C2094.47 548.6 2107.6 554.503 2116.91 565.953L2124.67 559.647ZM2076.79 538.6C2056.6 538.6 2040.4 545.497 2028.91 559.647L2036.67 565.953C2045.97 554.503 2059.11 548.6 2076.79 548.6V538.6ZM2028.87 559.696C2017.78 573.702 2012.59 593.235 2012.59 617.6H2022.59C2022.59 594.498 2027.53 577.498 2036.71 565.904L2028.87 559.696ZM2012.59 617.6C2012.59 641.974 2017.78 661.611 2028.84 675.864L2036.74 669.736C2027.53 657.856 2022.59 640.693 2022.59 617.6H2012.59ZM2028.91 675.953C2040.4 690.103 2056.6 697 2076.79 697V687C2059.11 687 2045.97 681.097 2036.67 669.647L2028.91 675.953ZM2366.4 713.6L2362.86 710.064L2362.78 710.149L2362.7 710.237L2366.4 713.6ZM2343.6 713.6L2347.14 710.064V710.064L2343.6 713.6ZM2339.2 682.8H2344.2L2334.63 680.779L2339.2 682.8ZM2316 709.6L2318.54 713.907L2318.58 713.883L2318.62 713.858L2316 709.6ZM2245.2 711.2L2243.01 715.695L2243.03 715.706L2243.05 715.716L2245.2 711.2ZM2220.4 690L2216.26 692.802L2220.4 690ZM2222.4 626L2226.06 629.412L2226.08 629.382L2226.11 629.351L2222.4 626ZM2259.2 608.4L2260.2 613.3L2260.23 613.292L2260.27 613.284L2259.2 608.4ZM2339.2 602.8V607.8H2344.2V602.8H2339.2ZM2329.2 554.4L2325.4 557.654L2325.44 557.692L2325.47 557.73L2329.2 554.4ZM2242.4 558L2240.06 553.58L2239.9 553.668L2239.74 553.769L2242.4 558ZM2219.2 542.4L2215.33 539.234L2215.31 539.255L2215.3 539.277L2219.2 542.4ZM2230.4 533.6L2227.92 529.259L2227.91 529.266L2227.89 529.273L2230.4 533.6ZM2262 521.2L2263.21 526.051L2263.25 526.041L2263.29 526.031L2262 521.2ZM2323.6 677.2L2319.98 673.754L2319.97 673.756L2323.6 677.2ZM2339.2 623.6H2344.2V618.6H2339.2V623.6ZM2278.4 626.8L2279.15 631.743L2279.2 631.735L2279.26 631.726L2278.4 626.8ZM2252 636.8L2255.33 640.526L2255.34 640.521L2255.34 640.516L2252 636.8ZM2255.6 683.2L2252.2 686.864L2252.27 686.927L2252.34 686.987L2255.6 683.2ZM2297.6 521.4C2321.17 521.4 2337.94 527.569 2348.88 539.05C2359.87 550.575 2365.8 568.312 2365.8 593.2H2375.8C2375.8 566.888 2369.53 546.225 2356.12 532.15C2342.66 518.031 2322.83 511.4 2297.6 511.4V521.4ZM2365.8 593.2V702H2375.8V593.2H2365.8ZM2365.8 702C2365.8 705.699 2364.71 708.217 2362.86 710.064L2369.94 717.136C2373.95 713.116 2375.8 707.901 2375.8 702H2365.8ZM2362.7 710.237C2361.18 711.911 2358.91 713 2355.2 713V723C2361.09 723 2366.29 721.156 2370.1 716.963L2362.7 710.237ZM2355.2 713C2351.5 713 2348.98 711.912 2347.14 710.064L2340.06 717.136C2344.08 721.155 2349.3 723 2355.2 723V713ZM2347.14 710.064C2345.29 708.217 2344.2 705.699 2344.2 702H2334.2C2334.2 707.901 2336.05 713.116 2340.06 717.136L2347.14 710.064ZM2344.2 702V682.8H2334.2V702H2344.2ZM2334.63 680.779C2329.96 691.346 2322.89 699.487 2313.38 705.342L2318.62 713.858C2329.91 706.913 2338.31 697.188 2343.77 684.821L2334.63 680.779ZM2313.46 705.293C2303.92 710.917 2292.82 713.8 2280 713.8V723.8C2294.38 723.8 2307.28 720.549 2318.54 713.907L2313.46 705.293ZM2280 713.8C2268.16 713.8 2257.3 711.412 2247.35 706.684L2243.05 715.716C2254.43 721.121 2266.77 723.8 2280 723.8V713.8ZM2247.39 706.705C2237.73 701.999 2230.16 695.498 2224.54 687.198L2216.26 692.802C2222.91 702.636 2231.87 710.267 2243.01 715.695L2247.39 706.705ZM2224.54 687.198C2218.97 678.958 2216.2 669.933 2216.2 660H2206.2C2206.2 671.933 2209.57 682.909 2216.26 692.802L2224.54 687.198ZM2216.2 660C2216.2 646.16 2219.71 636.208 2226.06 629.412L2218.74 622.588C2210.15 631.792 2206.2 644.507 2206.2 660H2216.2ZM2226.11 629.351C2232.56 622.212 2243.63 616.666 2260.2 613.3L2258.2 603.5C2240.64 607.068 2227.17 613.254 2218.69 622.649L2226.11 629.351ZM2260.27 613.284C2276.82 609.664 2300.14 607.8 2330.4 607.8V597.8C2299.86 597.8 2275.71 599.669 2258.13 603.515L2260.27 613.284ZM2330.4 607.8H2339.2V597.8H2330.4V607.8ZM2344.2 602.8V589.6H2334.2V602.8H2344.2ZM2344.2 589.6C2344.2 573.068 2340.78 559.865 2332.93 551.07L2325.47 557.73C2330.95 563.868 2334.2 574.132 2334.2 589.6H2344.2ZM2333 551.146C2325.26 542.117 2313 538.2 2297.6 538.2V548.2C2311.54 548.2 2320.34 551.749 2325.4 557.654L2333 551.146ZM2297.6 538.2C2278.53 538.2 2259.33 543.395 2240.06 553.58L2244.74 562.42C2262.8 552.872 2280.41 548.2 2297.6 548.2V538.2ZM2239.74 553.769C2236.24 555.969 2233.4 557.535 2231.16 558.536C2228.8 559.593 2227.58 559.8 2227.2 559.8V569.8C2229.75 569.8 2232.54 568.874 2235.24 567.664C2238.07 566.398 2241.36 564.565 2245.06 562.231L2239.74 553.769ZM2227.2 559.8C2225.43 559.8 2224.13 559.215 2222.94 557.878L2215.46 564.522C2218.54 567.985 2222.57 569.8 2227.2 569.8V559.8ZM2222.94 557.878C2221.75 556.54 2221 554.72 2221 552H2211C2211 556.746 2212.39 561.06 2215.46 564.522L2222.94 557.878ZM2221 552C2221 549.289 2221.75 547.219 2223.1 545.523L2215.3 539.277C2212.39 542.914 2211 547.244 2211 552H2221ZM2223.07 545.566C2224.94 543.281 2228.11 540.705 2232.91 537.927L2227.89 529.273C2222.56 532.361 2218.26 535.652 2215.33 539.234L2223.07 545.566ZM2232.88 537.941C2241.77 532.861 2251.87 528.887 2263.21 526.051L2260.79 516.349C2248.66 519.38 2237.7 523.672 2227.92 529.259L2232.88 537.941ZM2263.29 526.031C2274.89 522.937 2286.33 521.4 2297.6 521.4V511.4C2285.41 511.4 2273.11 513.063 2260.71 516.369L2263.29 526.031ZM2284.4 698.2C2301.64 698.2 2316.06 692.397 2327.22 680.644L2319.97 673.756C2310.87 683.337 2299.16 688.2 2284.4 688.2V698.2ZM2327.22 680.646C2338.62 668.659 2344.2 653.368 2344.2 635.2H2334.2C2334.2 651.166 2329.38 663.874 2319.98 673.754L2327.22 680.646ZM2344.2 635.2V623.6H2334.2V635.2H2344.2ZM2339.2 618.6H2332V628.6H2339.2V618.6ZM2332 618.6C2308.45 618.6 2290.24 619.666 2277.54 621.874L2279.26 631.726C2291.09 629.668 2308.62 628.6 2332 628.6V618.6ZM2277.65 621.857C2265.04 623.776 2255.07 627.309 2248.66 633.084L2255.34 640.516C2259.59 636.691 2267.23 633.557 2279.15 631.743L2277.65 621.857ZM2248.67 633.074C2242.22 638.844 2239.4 647.21 2239.4 657.2H2249.4C2249.4 649.057 2251.65 643.823 2255.33 640.526L2248.67 633.074ZM2239.4 657.2C2239.4 668.958 2243.69 678.963 2252.2 686.864L2259 679.536C2252.58 673.571 2249.4 666.242 2249.4 657.2H2239.4ZM2252.34 686.987C2261.09 694.533 2271.89 698.2 2284.4 698.2V688.2C2273.97 688.2 2265.58 685.2 2258.86 679.413L2252.34 686.987ZM2462.11 706.4L2459.55 710.695L2459.57 710.705L2459.58 710.716L2462.11 706.4ZM2429.71 671.2L2425.21 673.374L2425.23 673.421L2425.25 673.467L2429.71 671.2ZM2429.71 564.4L2425.24 562.164L2425.23 562.18L2425.22 562.195L2429.71 564.4ZM2462.11 528.8L2459.58 524.484L2459.57 524.495L2459.55 524.505L2462.11 528.8ZM2559.71 528.8L2562.23 524.484L2559.71 528.8ZM2592.11 564.4L2587.61 566.574L2587.63 566.621L2587.65 566.667L2592.11 564.4ZM2592.11 671.2L2587.64 668.964L2587.63 668.98L2587.62 668.995L2592.11 671.2ZM2559.71 706.4L2562.23 710.716L2559.71 706.4ZM2554.91 673.2L2551.03 670.047L2551.02 670.056L2554.91 673.2ZM2554.91 562.8L2551 565.914L2551.01 565.933L2551.03 565.953L2554.91 562.8ZM2466.91 562.8L2470.79 565.953L2470.81 565.933L2470.82 565.914L2466.91 562.8ZM2466.51 672.8L2462.59 675.904L2462.61 675.928L2462.63 675.953L2466.51 672.8ZM2510.91 713.8C2493.28 713.8 2477.91 709.849 2464.63 702.084L2459.58 710.716C2474.58 719.484 2491.73 723.8 2510.91 723.8V713.8ZM2464.67 702.105C2451.66 694.35 2441.5 683.341 2434.17 668.933L2425.25 673.467C2433.39 689.459 2444.83 701.917 2459.55 710.695L2464.67 702.105ZM2434.21 669.026C2427.13 654.349 2423.51 637.248 2423.51 617.6H2413.51C2413.51 638.485 2417.36 657.118 2425.21 673.374L2434.21 669.026ZM2423.51 617.6C2423.51 597.949 2427.13 580.996 2434.2 566.605L2425.22 562.195C2417.36 578.204 2413.51 596.718 2413.51 617.6H2423.51ZM2434.18 566.636C2441.52 551.961 2451.68 540.837 2464.67 533.095L2459.55 524.505C2444.8 533.296 2433.37 545.906 2425.24 562.164L2434.18 566.636ZM2464.63 533.116C2477.91 525.351 2493.28 521.4 2510.91 521.4V511.4C2491.73 511.4 2474.58 515.716 2459.58 524.484L2464.63 533.116ZM2510.91 521.4C2528.53 521.4 2543.91 525.351 2557.18 533.116L2562.23 524.484C2547.24 515.716 2530.08 511.4 2510.91 511.4V521.4ZM2557.18 533.116C2570.42 540.856 2580.55 551.956 2587.61 566.574L2596.61 562.226C2588.74 545.911 2577.27 533.278 2562.23 524.484L2557.18 533.116ZM2587.65 566.667C2594.97 581.044 2598.71 597.974 2598.71 617.6H2608.71C2608.71 596.693 2604.72 578.156 2596.57 562.133L2587.65 566.667ZM2598.71 617.6C2598.71 637.224 2594.97 654.302 2587.64 668.964L2596.58 673.436C2604.72 657.165 2608.71 638.51 2608.71 617.6H2598.71ZM2587.62 668.995C2580.57 683.346 2570.44 694.331 2557.18 702.084L2562.23 710.716C2577.24 701.936 2588.71 689.454 2596.6 673.405L2587.62 668.995ZM2557.18 702.084C2543.91 709.849 2528.53 713.8 2510.91 713.8V723.8C2530.08 723.8 2547.24 719.484 2562.23 710.716L2557.18 702.084ZM2510.91 697C2531.3 697 2547.53 690.28 2558.8 676.344L2551.02 670.056C2542.02 681.187 2528.92 687 2510.91 687V697ZM2558.79 676.353C2570.19 662.326 2575.51 642.492 2575.51 617.6H2565.51C2565.51 641.242 2560.43 658.474 2551.03 670.047L2558.79 676.353ZM2575.51 617.6C2575.51 593.21 2570.17 573.657 2558.79 559.647L2551.03 565.953C2560.45 577.543 2565.51 594.523 2565.51 617.6H2575.51ZM2558.82 559.686C2547.34 545.258 2531.14 538.2 2510.91 538.2V548.2C2528.55 548.2 2541.68 554.208 2551 565.914L2558.82 559.686ZM2510.91 538.2C2490.68 538.2 2474.48 545.258 2463 559.686L2470.82 565.914C2480.14 554.208 2493.27 548.2 2510.91 548.2V538.2ZM2463.03 559.647C2451.65 573.657 2446.31 593.21 2446.31 617.6H2456.31C2456.31 594.523 2461.37 577.543 2470.79 565.953L2463.03 559.647ZM2446.31 617.6C2446.31 642.216 2451.49 661.889 2462.59 675.904L2470.43 669.696C2461.26 658.111 2456.31 640.984 2456.31 617.6H2446.31ZM2462.63 675.953C2474.14 690.12 2490.48 697 2510.91 697V687C2492.94 687 2479.68 681.08 2470.39 669.647L2462.63 675.953Z" fill="#213BC1"/>
<path d="M2548.98 15H2376.02C2369.11 15 2362.7 18.5634 2359.04 24.4257L2261.15 181.58C2257.09 188.108 2257.12 196.39 2261.25 202.881L2359.02 356.727C2362.69 362.502 2369.06 366 2375.9 366H2562.05C2569.31 366 2576 362.068 2579.53 355.726L2664.77 202.558C2668.31 196.204 2668.11 188.431 2664.27 182.258L2565.96 24.4256C2562.3 18.5634 2555.89 15 2548.98 15Z" fill="#FFD800" stroke="#213BC1" stroke-width="25"/>
<path d="M2544.78 80.4568C2543.07 77.1081 2539.63 75 2535.87 75H2399.08L2434.81 112.364H2561.05L2544.78 80.4568Z" fill="#FF7C2C" fill-opacity="0.5"/>
<path d="M2399.08 75L2317.5 195.405H2384.79L2434.81 112.364L2399.08 75Z" fill="#FF7C2C" fill-opacity="0.5"/>
<path d="M2317.5 195.405L2381.87 302.164C2383.68 305.165 2386.93 307 2390.44 307H2450.89L2384.79 195.405H2317.5Z" fill="#FF7C2C" fill-opacity="0.5"/>
<path d="M2399.08 75H2535.87C2539.63 75 2543.07 77.1081 2544.78 80.4568L2561.05 112.364M2399.08 75L2317.5 195.405M2399.08 75L2434.81 112.364M2317.5 195.405L2381.87 302.164C2383.68 305.165 2386.93 307 2390.44 307H2450.89M2317.5 195.405H2384.79M2434.81 112.364H2561.05M2434.81 112.364L2384.79 195.405M2561.05 112.364L2604.7 190.404C2606.44 193.502 2606.4 197.286 2604.6 200.347L2544.9 302.062C2543.1 305.121 2539.82 307 2536.27 307H2450.89M2384.79 195.405L2450.89 307" stroke="#FF7C2C" stroke-width="25"/>
<path d="M2875.93 716H2760.07C2753.2 716 2746.81 719.523 2743.15 725.331L2677.8 828.952C2673.65 835.526 2673.69 843.907 2677.89 850.444L2743.13 951.822C2746.81 957.543 2753.15 961 2759.95 961H2884.98C2892.2 961 2898.86 957.108 2902.4 950.818L2959.14 850.124C2962.75 843.721 2962.56 835.854 2958.63 829.637L2892.85 725.331C2889.19 719.523 2882.8 716 2875.93 716Z" fill="#FFD800" stroke="#213BC1" stroke-width="20"/>
<path d="M2876.71 763.452C2875 760.106 2871.56 758 2867.8 758H2773.39L2798.52 784.251H2887.33L2876.71 763.452Z" fill="#FF7C2C" fill-opacity="0.5"/>
<path d="M2773.39 758L2716 842.595H2763.33L2798.52 784.251L2773.39 758Z" fill="#FF7C2C" fill-opacity="0.5"/>
<path d="M2716 842.595L2760.42 916.168C2762.23 919.167 2765.48 921 2768.98 921H2809.83L2763.33 842.595H2716Z" fill="#FF7C2C" fill-opacity="0.5"/>
<path d="M2773.39 758H2867.8C2871.56 758 2875 760.106 2876.71 763.452L2887.33 784.251M2773.39 758L2716 842.595M2773.39 758L2798.52 784.251M2716 842.595L2760.42 916.168C2762.23 919.167 2765.48 921 2768.98 921H2809.83M2716 842.595H2763.33M2798.52 784.251H2887.33M2798.52 784.251L2763.33 842.595M2887.33 784.251L2917.2 837.589C2918.93 840.689 2918.89 844.478 2917.09 847.542L2876.82 916.067C2875.03 919.123 2871.74 921 2868.2 921H2809.83M2763.33 842.595L2809.83 921" stroke="#FF7C2C" stroke-width="20"/>
</svg>
