<svg width="490" height="470" viewBox="0 0 490 470" fill="none" xmlns="http://www.w3.org/2000/svg">
<path d="M287.656 5H415.801C419.359 5 422.65 6.8908 424.441 9.96515L483.156 110.723C484.921 113.752 484.971 117.483 483.288 120.559L421.548 233.368L483.305 345.256C484.98 348.291 484.964 351.977 483.262 354.997L424.416 459.43C422.644 462.575 419.314 464.521 415.704 464.521H287.755C284.354 464.521 281.186 462.793 279.346 459.932L208.696 350.138H84.0756C80.6629 350.138 77.4858 348.398 75.6485 345.522L7.42473 238.729C5.33507 235.458 5.32704 231.273 7.40412 227.994L75.6528 120.252C77.4864 117.358 80.6742 115.603 84.1006 115.603H208.696L279.331 9.45991C281.185 6.67394 284.31 5 287.656 5Z" fill="#FFD800"/>
<path d="M421.548 233.368L483.288 120.559C484.971 117.483 484.921 113.752 483.156 110.723L424.441 9.96515C422.649 6.8908 419.359 5 415.801 5H287.656C284.309 5 281.185 6.67394 279.331 9.45991L208.696 115.603M421.548 233.368H282.299M421.548 233.368L483.305 345.256C484.98 348.291 484.964 351.977 483.262 354.997L424.416 459.43C422.644 462.575 419.314 464.521 415.704 464.521H287.755C284.354 464.521 281.186 462.793 279.346 459.933L208.696 350.138M282.299 233.368L208.696 115.603M282.299 233.368L208.696 350.138M208.696 115.603H84.1006C80.6742 115.603 77.4864 117.358 75.6528 120.252L7.40412 227.994C5.32704 231.273 5.33507 235.458 7.42473 238.729L75.6485 345.522C77.4858 348.398 80.6629 350.138 84.0756 350.138H208.696" stroke="#213BC1" stroke-width="10"/>
<path d="M404.425 276.671C402.727 273.295 399.27 271.164 395.491 271.164H306.17L330.041 296.474H414.386L404.425 276.671Z" fill="#FF7C2C" fill-opacity="0.5"/>
<path d="M306.17 271.164L253.653 361.2H296.622L330.041 296.474L306.17 271.164Z" fill="#FF7C2C" fill-opacity="0.5"/>
<path d="M253.653 361.2L293.671 423.708C295.51 426.58 298.684 428.317 302.093 428.317H340.783L296.622 361.2H253.653Z" fill="#FF7C2C" fill-opacity="0.5"/>
<path d="M306.17 271.164H395.491C399.27 271.164 402.727 273.295 404.425 276.671L414.386 296.474M306.17 271.164L253.653 361.2M306.17 271.164L330.041 296.474M253.653 361.2L293.671 423.708C295.51 426.58 298.684 428.317 302.093 428.317H340.783M253.653 361.2H296.622M330.041 296.474H414.386M330.041 296.474L296.622 361.2M414.386 296.474L444.197 355.982C445.812 359.206 445.566 363.051 443.553 366.043L404.627 423.899C402.769 426.66 399.659 428.317 396.33 428.317H340.783M296.622 361.2L340.783 428.317" stroke="#FF7C2C" stroke-width="10"/>
<path d="M404.425 44.3238C402.727 40.9479 399.27 38.8176 395.491 38.8176H306.17L330.041 64.1272H414.386L404.425 44.3238Z" fill="#FF7C2C" fill-opacity="0.5"/>
<path d="M306.17 38.8176L251.664 120.378H296.621L330.041 64.1272L306.17 38.8176Z" fill="#FF7C2C" fill-opacity="0.5"/>
<path d="M251.664 120.378L293.714 191.082C295.517 194.112 298.783 195.97 302.309 195.97H340.783L296.621 120.378H251.664Z" fill="#FF7C2C" fill-opacity="0.5"/>
<path d="M306.17 38.8176H395.491C399.27 38.8176 402.727 40.9479 404.425 44.3238L414.386 64.1272M306.17 38.8176L251.664 120.378M306.17 38.8176L330.041 64.1272M251.664 120.378L293.714 191.082C295.517 194.112 298.783 195.97 302.309 195.97H340.783M251.664 120.378H296.621M330.041 64.1272H414.386M330.041 64.1272L296.621 120.378M414.386 64.1272L442.688 115.428C444.383 118.5 444.344 122.234 442.587 125.269L404.544 190.98C402.756 194.068 399.458 195.97 395.889 195.97H340.783M296.621 120.378L340.783 195.97" stroke="#FF7C2C" stroke-width="10"/>
<path d="M196.745 161.691C195.047 158.315 191.591 156.185 187.812 156.185H98.4904L122.362 181.494H206.707L196.745 161.691Z" fill="#FF7C2C" fill-opacity="0.5"/>
<path d="M98.4904 156.185L43.9844 237.745H88.9419L122.362 181.494L98.4904 156.185Z" fill="#FF7C2C" fill-opacity="0.5"/>
<path d="M43.9844 237.745L86.0346 308.448C87.8372 311.479 91.103 313.337 94.6294 313.337H133.104L88.9419 237.745H43.9844Z" fill="#FF7C2C" fill-opacity="0.5"/>
<path d="M98.4904 156.185H187.812C191.591 156.185 195.047 158.315 196.745 161.691L206.707 181.494M98.4904 156.185L43.9844 237.745M98.4904 156.185L122.362 181.494M43.9844 237.745L86.0346 308.448C87.8372 311.479 91.103 313.337 94.6294 313.337H133.104M43.9844 237.745H88.9419M122.362 181.494H206.707M122.362 181.494L88.9419 237.745M206.707 181.494L235.009 232.795C236.703 235.866 236.665 239.601 234.907 242.636L196.864 308.347C195.076 311.435 191.778 313.337 188.21 313.337H133.104M88.9419 237.745L133.104 313.337" stroke="#FF7C2C" stroke-width="10"/>
</svg>
